<?xml version="1.0" encoding="iso-8859-1"?>
<!-- Generator: Adobe Illustrator 19.0.0, SVG Export Plug-In . SVG Version: 6.00 Build 0)  -->
<svg xmlns="http://www.w3.org/2000/svg" xmlns:xlink="http://www.w3.org/1999/xlink" version="1.1" id="Capa_1" x="0px" y="0px" viewBox="0 0 60.025 60.025" style="enable-background:new 0 0 60.025 60.025;" xml:space="preserve" width="512px" height="512px">
<g>
	<g>
		<path d="M46.013,3.425v17.6h2v-17.6l1.3,1.3l1.4-1.4l-3-3c-0.4-0.4-1-0.4-1.4,0l-3,3l1.4,1.4L46.013,3.425z" fill="#919191"/>
		<path d="M55.013,23.425v17.6h2v-17.6l1.3,1.3l1.4-1.4l-3-3c-0.4-0.4-1-0.4-1.4,0l-3,3l1.4,1.4L55.013,23.425z" fill="#919191"/>
		<path d="M12.013,3.425v17.6h2v-17.6l1.3,1.3l1.4-1.4l-3-3c-0.4-0.4-1-0.4-1.4,0l-3,3l1.4,1.4L12.013,3.425z" fill="#919191"/>
		<path d="M3.013,23.425v17.6h2v-17.6l1.3,1.3l1.4-1.4l-3-3c-0.4-0.4-1-0.4-1.4,0l-3,3l1.4,1.4L3.013,23.425z" fill="#919191"/>
		<rect x="3.013" y="44.025" width="2" height="4" fill="#919191"/>
		<rect x="55.013" y="44.025" width="2" height="4" fill="#919191"/>
		<rect x="46.013" y="24.025" width="2" height="4" fill="#919191"/>
		<rect x="12.013" y="24.025" width="2" height="4" fill="#919191"/>
		<rect x="0.013" y="54.025" width="2" height="2" fill="#919191"/>
		<rect x="4.013" y="54.025" width="2" height="2" fill="#919191"/>
		<rect x="8.013" y="54.025" width="2" height="2" fill="#919191"/>
		<rect x="12.013" y="54.025" width="2" height="2" fill="#919191"/>
		<rect x="16.013" y="54.025" width="2" height="2" fill="#919191"/>
		<rect x="46.013" y="54.025" width="2" height="2" fill="#919191"/>
		<rect x="42.013" y="54.025" width="2" height="2" fill="#919191"/>
		<rect x="50.013" y="54.025" width="2" height="2" fill="#919191"/>
		<rect x="54.013" y="54.025" width="2" height="2" fill="#919191"/>
		<rect x="58.013" y="54.025" width="2" height="2" fill="#919191"/>
		<path d="M36.013,50.725v-3.7h12c0.4,0,0.7-0.2,0.9-0.5s0.2-0.7,0-1l-12.9-23.8v-10.6c0-0.2,0-0.4-0.1-0.6l-5-10    c-0.4-0.7-1.5-0.7-1.8,0l-5,10c-0.2,0.2-0.2,0.5-0.1,0.8v10.4l-12.9,23.8c-0.2,0.3-0.2,0.7,0,1s0.5,0.5,0.9,0.5h12v3.7l-4.6,7.3    h-19.4v2h60v-2h-19.4L36.013,50.725z M34.013,22.025v24h-3v-34h3V22.025z M29.013,46.025h-3v-24v-10h3V46.025z M26.013,48.025h8v2    h-8V48.025z M46.312,45.025h-10.3v-3h5v-2h-5v-14.1L46.312,45.025z M30.013,3.225l3.4,6.8h-6.8L30.013,3.225z M13.713,45.025    l10.3-19.1v14.1h-5v2h5v3H13.713z M25.513,52.025h8.9l3.8,6h-7.2v-4h-2v4h-7.2L25.513,52.025z" fill="#919191"/>
	</g>
</g>
<g>
</g>
<g>
</g>
<g>
</g>
<g>
</g>
<g>
</g>
<g>
</g>
<g>
</g>
<g>
</g>
<g>
</g>
<g>
</g>
<g>
</g>
<g>
</g>
<g>
</g>
<g>
</g>
<g>
</g>
</svg>
