<?xml version="1.0" encoding="iso-8859-1"?>
<!-- Generator: Adobe Illustrator 19.0.0, SVG Export Plug-In . SVG Version: 6.00 Build 0)  -->
<svg xmlns="http://www.w3.org/2000/svg" xmlns:xlink="http://www.w3.org/1999/xlink" version="1.1" id="Capa_1" x="0px" y="0px" viewBox="0 0 60 60" style="enable-background:new 0 0 60 60;" xml:space="preserve" width="512px" height="512px">
<g>
	<g>
		<path d="M59,14h-3v-4c0-0.6-0.4-1-1-1H28V1c0-0.6-0.4-1-1-1H1C0.4,0,0,0.4,0,1v58c0,0.6,0.4,1,1,1h58c0.6,0,1-0.4,1-1V15    C60,14.4,59.6,14,59,14z M54,11v3H28v-3H54z M58,58H2V2h24v8v4H8v2h19h28h3V58z" fill="#919191"/>
		<rect x="8" y="20" width="4" height="2" fill="#919191"/>
		<rect x="16" y="20" width="4" height="2" fill="#919191"/>
		<rect x="24" y="20" width="4" height="2" fill="#919191"/>
		<rect x="32" y="20" width="4" height="2" fill="#919191"/>
		<rect x="40" y="20" width="4" height="2" fill="#919191"/>
		<rect x="48" y="20" width="4" height="2" fill="#919191"/>
		<rect x="8" y="52" width="4" height="2" fill="#919191"/>
		<rect x="16" y="52" width="4" height="2" fill="#919191"/>
		<rect x="24" y="52" width="4" height="2" fill="#919191"/>
		<rect x="32" y="52" width="4" height="2" fill="#919191"/>
		<rect x="40" y="52" width="4" height="2" fill="#919191"/>
		<rect x="48" y="52" width="4" height="2" fill="#919191"/>
		<rect x="8" y="25" width="2" height="24" fill="#919191"/>
		<rect x="50" y="25" width="2" height="24" fill="#919191"/>
		<path d="M38,32h-2v-5c0-0.6-0.4-1-1-1H25c-0.6,0-1,0.4-1,1v5h-2c-0.6,0-1,0.4-1,1v14c0,0.6,0.4,1,1,1h16c0.6,0,1-0.4,1-1V33    C39,32.4,38.6,32,38,32z M26,28h8v4h-8V28z M37,46H23V34h2h10h2V46z" fill="#919191"/>
		<polygon points="28,38 29,38 29,44 31,44 31,38 32,38 32,36 28,36   " fill="#919191"/>
	</g>
</g>
<g>
</g>
<g>
</g>
<g>
</g>
<g>
</g>
<g>
</g>
<g>
</g>
<g>
</g>
<g>
</g>
<g>
</g>
<g>
</g>
<g>
</g>
<g>
</g>
<g>
</g>
<g>
</g>
<g>
</g>
</svg>
